<svg
  xmlns="http://www.w3.org/2000/svg"
  xmlSpace="preserve"
  viewBox="0 0 1024 1024"
>
  <path d="M454 311c-2 1-2 3-2 6 0 2 1 2 14 6l14 6c11 6 21 17 25 28l1 4 5-2c5-2 5-3 5-6-1-5-6-15-10-20-7-9-21-18-33-21-10-2-17-3-19-1zm129 0c-14 3-27 10-36 20-4 5-10 17-11 22-1 2 0 3 3 5l5 3 5-8c4-9 9-14 16-20 9-6 15-9 25-11l9-4c2-2 0-6-3-7-3-2-5-2-13 0zm-270 3c-14 3-19 12-16 28 5 22 20 43 39 55 16 11 27 13 69 13 35 0 52-1 62-4 17-5 26-14 23-22-2-5-8-9-30-22-48-29-84-44-114-48-10-2-26-1-33 0zm395-1a325 325 0 0 0-148 72c-1 6 6 14 17 18 12 5 19 6 53 6 34 1 58 0 67-3 24-7 45-28 54-55 4-10 5-22 3-27-3-5-8-9-15-10-6-1-24-2-31-1zm-189 59c-5 3-10 8-13 14s-3 8-4 16c0 13 1 20 6 28 6 9 15 13 23 10 12-4 20-21 19-38-1-12-8-25-16-30-4-2-11-2-15 0zm-42 52-18 14c-21 18-28 22-40 26-7 2-13 1-15-3-4-7-1-12 9-15l12-5c10-5 13-10 9-14-2-2-3-2-34-2-34 0-36 0-40 5-3 3-4 10-2 17 7 21 33 40 63 45s53-5 64-30c4-9 6-18 6-26 0-6-1-8-3-10-3-3-8-4-11-2zm88 1c-5 3-6 11-3 24 7 29 28 45 57 44 31-1 61-18 72-40 6-13 5-22-4-27l-37-1c-36 0-35 0-35 5s9 12 21 16c8 2 12 4 13 8 2 3 0 7-4 10-9 5-26-3-53-27-17-14-21-16-27-12zm-36 104v-37l-3-28-1-5c-5 0-10-2-17-5l-4-1-1 5-1 23c0 15 0 17 2 25 4 11 9 21 14 28s7 9 10 6l1-11zm192-50c-8 5-7 20 1 24 2 1 11 2 36 2 31 0 34 0 37-2 3-3 5-5 5-10 1-5-1-10-5-13-3-2-3-2-37-2l-37 1zM350 680l-2-2-2 3c-4 4-12 9-19 11-18 5-34 1-46-11a50 50 0 0 1-14-40l-11-3-28-10v33c6 28 24 52 50 64 22 10 54 9 75-2 9-5 22-16 22-18l-25-25zm383-35a82 82 0 0 0-49-77c-18-8-29-9-83-7-17 0-17 0-20 3l-1 2-2 7v71c0 87 0 83 7 86 4 2 61 2 74 1 20-3 35-11 50-25 9-9 10-11 15-21 8-16 10-23 9-40zm-41 15c-5 16-15 26-30 32-5 2-8 2-25 2l-19 1v-97h17l23 1c14 4 25 13 32 27 3 6 3 8 4 17 0 9 0 12-2 17zm-157-93c-3-6-5-6-18-6s-15 1-18 6c-2 3-2 6-2 52 0 49 0 54-4 62-2 4-8 10-13 12-11 6-26 1-33-10-5-7-5-11-5-63 0-63 1-59-20-59-10 0-12 0-14 2l-4 3v1l-1 3a1011 1011 0 0 0 3 118c7 20 24 37 43 42 32 8 63-4 78-29 9-15 9-19 9-80l-1-54zm245-5-4 4c-2 3-2 7-2 78 0 82 0 79 5 85 3 2 4 2 13 2 10 1 11 1 14-2 7-4 7 0 7-83 0-68 0-75-2-78-2-6-6-7-18-7l-13 1zm-521-83c-8 5-7 20 1 24 2 1 12 2 36 2 32 0 34 0 37-2 4-3 5-5 6-10s-2-10-6-13c-3-2-3-2-37-2l-37 1z" />
  <path d="m549 458-2-5-3 1a49 49 0 0 1-20 5h-2l-4 2c-5 2-5 10 1 10h6l-2 21v48c3 3 5 1 10-6 6-7 11-17 14-28 3-8 3-10 3-25l-1-23zM350 608l-2 2-3-3c-3-4-11-8-18-10-18-6-34-2-46 11a50 50 0 0 0-14 40l-11 2-28 11v-34c6-28 24-52 50-63 22-10 54-9 75 2 9 5 22 15 22 18 0 1-18 19-25 24z" />
</svg>
